<mxfile host="app.diagrams.net" agent="Mozilla/5.0 (Windows NT 10.0; Win64; x64) AppleWebKit/537.36 (KHTML, like Gecko) Chrome/138.0.0.0 Safari/537.36" version="28.1.2">
  <diagram name="PÃ¡gina-1" id="LfR1hwVw9W9deJp4ly_a">
    <mxGraphModel dx="3169" dy="1744" grid="1" gridSize="10" guides="1" tooltips="1" connect="1" arrows="1" fold="1" page="1" pageScale="1" pageWidth="827" pageHeight="1169" math="0" shadow="0">
      <root>
        <mxCell id="0" />
        <mxCell id="1" parent="0" />
        <mxCell id="BPRIxgXjPqgxqExQSOau-2" value="Empleado&amp;nbsp;" style="rounded=0;whiteSpace=wrap;html=1;" vertex="1" parent="1">
          <mxGeometry x="232" y="150" width="120" height="60" as="geometry" />
        </mxCell>
        <mxCell id="BPRIxgXjPqgxqExQSOau-3" value="Supervisor" style="rounded=0;whiteSpace=wrap;html=1;" vertex="1" parent="1">
          <mxGeometry x="496" y="150" width="120" height="60" as="geometry" />
        </mxCell>
        <mxCell id="BPRIxgXjPqgxqExQSOau-4" value="" style="endArrow=classic;startArrow=classic;html=1;rounded=0;entryX=0;entryY=0.5;entryDx=0;entryDy=0;exitX=1;exitY=0.5;exitDx=0;exitDy=0;" edge="1" parent="1" source="BPRIxgXjPqgxqExQSOau-2" target="BPRIxgXjPqgxqExQSOau-3">
          <mxGeometry width="50" height="50" relative="1" as="geometry">
            <mxPoint x="402" y="200" as="sourcePoint" />
            <mxPoint x="452" y="150" as="targetPoint" />
          </mxGeometry>
        </mxCell>
        <mxCell id="BPRIxgXjPqgxqExQSOau-8" style="edgeStyle=orthogonalEdgeStyle;rounded=0;orthogonalLoop=1;jettySize=auto;html=1;exitX=0.5;exitY=0;exitDx=0;exitDy=0;entryX=0;entryY=0.5;entryDx=0;entryDy=0;" edge="1" parent="1" source="BPRIxgXjPqgxqExQSOau-5" target="BPRIxgXjPqgxqExQSOau-7">
          <mxGeometry relative="1" as="geometry" />
        </mxCell>
        <mxCell id="BPRIxgXjPqgxqExQSOau-26" style="edgeStyle=orthogonalEdgeStyle;rounded=0;orthogonalLoop=1;jettySize=auto;html=1;exitX=1;exitY=0.5;exitDx=0;exitDy=0;entryX=0;entryY=0.5;entryDx=0;entryDy=0;" edge="1" parent="1" source="BPRIxgXjPqgxqExQSOau-5" target="BPRIxgXjPqgxqExQSOau-18">
          <mxGeometry relative="1" as="geometry" />
        </mxCell>
        <mxCell id="BPRIxgXjPqgxqExQSOau-28" style="edgeStyle=orthogonalEdgeStyle;rounded=0;orthogonalLoop=1;jettySize=auto;html=1;exitX=0.5;exitY=1;exitDx=0;exitDy=0;entryX=0;entryY=0.5;entryDx=0;entryDy=0;" edge="1" parent="1" source="BPRIxgXjPqgxqExQSOau-5" target="BPRIxgXjPqgxqExQSOau-23">
          <mxGeometry relative="1" as="geometry" />
        </mxCell>
        <mxCell id="BPRIxgXjPqgxqExQSOau-32" style="edgeStyle=orthogonalEdgeStyle;rounded=0;orthogonalLoop=1;jettySize=auto;html=1;exitX=0.25;exitY=1;exitDx=0;exitDy=0;entryX=0;entryY=0.5;entryDx=0;entryDy=0;" edge="1" parent="1" source="BPRIxgXjPqgxqExQSOau-5" target="BPRIxgXjPqgxqExQSOau-30">
          <mxGeometry relative="1" as="geometry" />
        </mxCell>
        <mxCell id="BPRIxgXjPqgxqExQSOau-5" value="Empleado" style="rounded=0;whiteSpace=wrap;html=1;" vertex="1" parent="1">
          <mxGeometry x="130" y="470" width="120" height="60" as="geometry" />
        </mxCell>
        <mxCell id="BPRIxgXjPqgxqExQSOau-22" style="edgeStyle=orthogonalEdgeStyle;rounded=0;orthogonalLoop=1;jettySize=auto;html=1;exitX=0.5;exitY=1;exitDx=0;exitDy=0;entryX=0.5;entryY=0;entryDx=0;entryDy=0;" edge="1" parent="1" source="BPRIxgXjPqgxqExQSOau-7" target="BPRIxgXjPqgxqExQSOau-18">
          <mxGeometry relative="1" as="geometry" />
        </mxCell>
        <mxCell id="BPRIxgXjPqgxqExQSOau-7" value="Registrar" style="ellipse;whiteSpace=wrap;html=1;aspect=fixed;" vertex="1" parent="1">
          <mxGeometry x="374" y="350" width="80" height="80" as="geometry" />
        </mxCell>
        <mxCell id="BPRIxgXjPqgxqExQSOau-10" value="1" style="ellipse;whiteSpace=wrap;html=1;aspect=fixed;" vertex="1" parent="1">
          <mxGeometry x="404" y="360" width="20" height="20" as="geometry" />
        </mxCell>
        <mxCell id="BPRIxgXjPqgxqExQSOau-25" style="edgeStyle=orthogonalEdgeStyle;rounded=0;orthogonalLoop=1;jettySize=auto;html=1;exitX=0.5;exitY=1;exitDx=0;exitDy=0;entryX=0.5;entryY=0;entryDx=0;entryDy=0;" edge="1" parent="1" source="BPRIxgXjPqgxqExQSOau-18" target="BPRIxgXjPqgxqExQSOau-23">
          <mxGeometry relative="1" as="geometry" />
        </mxCell>
        <mxCell id="BPRIxgXjPqgxqExQSOau-18" value="Visualizar Muro" style="ellipse;whiteSpace=wrap;html=1;aspect=fixed;" vertex="1" parent="1">
          <mxGeometry x="374" y="480" width="80" height="80" as="geometry" />
        </mxCell>
        <mxCell id="BPRIxgXjPqgxqExQSOau-19" value="1" style="ellipse;whiteSpace=wrap;html=1;aspect=fixed;" vertex="1" parent="1">
          <mxGeometry x="404" y="490" width="20" height="20" as="geometry" />
        </mxCell>
        <mxCell id="BPRIxgXjPqgxqExQSOau-116" style="edgeStyle=orthogonalEdgeStyle;rounded=0;orthogonalLoop=1;jettySize=auto;html=1;exitX=0.5;exitY=1;exitDx=0;exitDy=0;entryX=0.5;entryY=0;entryDx=0;entryDy=0;" edge="1" parent="1" source="BPRIxgXjPqgxqExQSOau-23" target="BPRIxgXjPqgxqExQSOau-113">
          <mxGeometry relative="1" as="geometry" />
        </mxCell>
        <mxCell id="BPRIxgXjPqgxqExQSOau-23" value="Visualizar mensajes" style="ellipse;whiteSpace=wrap;html=1;aspect=fixed;" vertex="1" parent="1">
          <mxGeometry x="374" y="600" width="80" height="80" as="geometry" />
        </mxCell>
        <mxCell id="BPRIxgXjPqgxqExQSOau-24" value="1" style="ellipse;whiteSpace=wrap;html=1;aspect=fixed;" vertex="1" parent="1">
          <mxGeometry x="404" y="610" width="20" height="20" as="geometry" />
        </mxCell>
        <mxCell id="BPRIxgXjPqgxqExQSOau-42" style="edgeStyle=orthogonalEdgeStyle;rounded=0;orthogonalLoop=1;jettySize=auto;html=1;exitX=0;exitY=1;exitDx=0;exitDy=0;entryX=0;entryY=0.5;entryDx=0;entryDy=0;" edge="1" parent="1" source="BPRIxgXjPqgxqExQSOau-30" target="BPRIxgXjPqgxqExQSOau-5">
          <mxGeometry relative="1" as="geometry" />
        </mxCell>
        <mxCell id="BPRIxgXjPqgxqExQSOau-43" style="edgeStyle=orthogonalEdgeStyle;rounded=0;orthogonalLoop=1;jettySize=auto;html=1;exitX=1;exitY=1;exitDx=0;exitDy=0;entryX=1;entryY=0.5;entryDx=0;entryDy=0;" edge="1" parent="1" source="BPRIxgXjPqgxqExQSOau-30" target="BPRIxgXjPqgxqExQSOau-37">
          <mxGeometry relative="1" as="geometry" />
        </mxCell>
        <mxCell id="BPRIxgXjPqgxqExQSOau-30" value="Enviar&lt;div&gt;Mensaje&lt;/div&gt;" style="ellipse;whiteSpace=wrap;html=1;aspect=fixed;" vertex="1" parent="1">
          <mxGeometry x="383" y="800" width="80" height="80" as="geometry" />
        </mxCell>
        <mxCell id="BPRIxgXjPqgxqExQSOau-31" value="1" style="ellipse;whiteSpace=wrap;html=1;aspect=fixed;" vertex="1" parent="1">
          <mxGeometry x="414" y="800" width="20" height="20" as="geometry" />
        </mxCell>
        <mxCell id="BPRIxgXjPqgxqExQSOau-38" style="edgeStyle=orthogonalEdgeStyle;rounded=0;orthogonalLoop=1;jettySize=auto;html=1;exitX=0.5;exitY=0;exitDx=0;exitDy=0;entryX=1;entryY=0.5;entryDx=0;entryDy=0;" edge="1" parent="1" source="BPRIxgXjPqgxqExQSOau-37" target="BPRIxgXjPqgxqExQSOau-7">
          <mxGeometry relative="1" as="geometry" />
        </mxCell>
        <mxCell id="BPRIxgXjPqgxqExQSOau-39" style="edgeStyle=orthogonalEdgeStyle;rounded=0;orthogonalLoop=1;jettySize=auto;html=1;exitX=0;exitY=0.5;exitDx=0;exitDy=0;entryX=1;entryY=0.5;entryDx=0;entryDy=0;" edge="1" parent="1" source="BPRIxgXjPqgxqExQSOau-37" target="BPRIxgXjPqgxqExQSOau-18">
          <mxGeometry relative="1" as="geometry" />
        </mxCell>
        <mxCell id="BPRIxgXjPqgxqExQSOau-40" style="edgeStyle=orthogonalEdgeStyle;rounded=0;orthogonalLoop=1;jettySize=auto;html=1;exitX=0.5;exitY=1;exitDx=0;exitDy=0;entryX=1;entryY=0.5;entryDx=0;entryDy=0;" edge="1" parent="1" source="BPRIxgXjPqgxqExQSOau-37" target="BPRIxgXjPqgxqExQSOau-23">
          <mxGeometry relative="1" as="geometry" />
        </mxCell>
        <mxCell id="BPRIxgXjPqgxqExQSOau-41" style="edgeStyle=orthogonalEdgeStyle;rounded=0;orthogonalLoop=1;jettySize=auto;html=1;exitX=0.75;exitY=1;exitDx=0;exitDy=0;entryX=1;entryY=0.5;entryDx=0;entryDy=0;" edge="1" parent="1" source="BPRIxgXjPqgxqExQSOau-37" target="BPRIxgXjPqgxqExQSOau-30">
          <mxGeometry relative="1" as="geometry" />
        </mxCell>
        <mxCell id="BPRIxgXjPqgxqExQSOau-37" value="Supervisor" style="rounded=0;whiteSpace=wrap;html=1;" vertex="1" parent="1">
          <mxGeometry x="600" y="480" width="120" height="60" as="geometry" />
        </mxCell>
        <mxCell id="BPRIxgXjPqgxqExQSOau-46" style="edgeStyle=orthogonalEdgeStyle;rounded=0;orthogonalLoop=1;jettySize=auto;html=1;exitX=0.5;exitY=0;exitDx=0;exitDy=0;entryX=0;entryY=0.5;entryDx=0;entryDy=0;" edge="1" parent="1" source="BPRIxgXjPqgxqExQSOau-50" target="BPRIxgXjPqgxqExQSOau-52">
          <mxGeometry relative="1" as="geometry" />
        </mxCell>
        <mxCell id="BPRIxgXjPqgxqExQSOau-47" style="edgeStyle=orthogonalEdgeStyle;rounded=0;orthogonalLoop=1;jettySize=auto;html=1;exitX=1;exitY=0.5;exitDx=0;exitDy=0;entryX=0;entryY=0.5;entryDx=0;entryDy=0;" edge="1" parent="1" source="BPRIxgXjPqgxqExQSOau-50" target="BPRIxgXjPqgxqExQSOau-55">
          <mxGeometry relative="1" as="geometry" />
        </mxCell>
        <mxCell id="BPRIxgXjPqgxqExQSOau-49" style="edgeStyle=orthogonalEdgeStyle;rounded=0;orthogonalLoop=1;jettySize=auto;html=1;exitX=0.25;exitY=1;exitDx=0;exitDy=0;entryX=0;entryY=0.5;entryDx=0;entryDy=0;" edge="1" parent="1" source="BPRIxgXjPqgxqExQSOau-50" target="BPRIxgXjPqgxqExQSOau-61">
          <mxGeometry relative="1" as="geometry" />
        </mxCell>
        <mxCell id="BPRIxgXjPqgxqExQSOau-50" value="Empleado" style="rounded=0;whiteSpace=wrap;html=1;" vertex="1" parent="1">
          <mxGeometry x="139.95" y="1020" width="120" height="60" as="geometry" />
        </mxCell>
        <mxCell id="BPRIxgXjPqgxqExQSOau-51" style="edgeStyle=orthogonalEdgeStyle;rounded=0;orthogonalLoop=1;jettySize=auto;html=1;exitX=0.5;exitY=1;exitDx=0;exitDy=0;entryX=0.5;entryY=0;entryDx=0;entryDy=0;" edge="1" parent="1" source="BPRIxgXjPqgxqExQSOau-52" target="BPRIxgXjPqgxqExQSOau-55">
          <mxGeometry relative="1" as="geometry" />
        </mxCell>
        <mxCell id="BPRIxgXjPqgxqExQSOau-52" value="Registrar" style="ellipse;whiteSpace=wrap;html=1;aspect=fixed;" vertex="1" parent="1">
          <mxGeometry x="383.95" y="900" width="80" height="80" as="geometry" />
        </mxCell>
        <mxCell id="BPRIxgXjPqgxqExQSOau-53" value="1" style="ellipse;whiteSpace=wrap;html=1;aspect=fixed;" vertex="1" parent="1">
          <mxGeometry x="413.95" y="910" width="20" height="20" as="geometry" />
        </mxCell>
        <mxCell id="BPRIxgXjPqgxqExQSOau-72" style="edgeStyle=orthogonalEdgeStyle;rounded=0;orthogonalLoop=1;jettySize=auto;html=1;exitX=0.5;exitY=1;exitDx=0;exitDy=0;entryX=0.5;entryY=0;entryDx=0;entryDy=0;" edge="1" parent="1" source="BPRIxgXjPqgxqExQSOau-55" target="BPRIxgXjPqgxqExQSOau-70">
          <mxGeometry relative="1" as="geometry" />
        </mxCell>
        <mxCell id="BPRIxgXjPqgxqExQSOau-78" style="edgeStyle=orthogonalEdgeStyle;rounded=0;orthogonalLoop=1;jettySize=auto;html=1;exitX=1;exitY=1;exitDx=0;exitDy=0;entryX=0;entryY=0;entryDx=0;entryDy=0;" edge="1" parent="1" source="BPRIxgXjPqgxqExQSOau-55" target="BPRIxgXjPqgxqExQSOau-76">
          <mxGeometry relative="1" as="geometry" />
        </mxCell>
        <mxCell id="BPRIxgXjPqgxqExQSOau-55" value="Visualizar Muro" style="ellipse;whiteSpace=wrap;html=1;aspect=fixed;" vertex="1" parent="1">
          <mxGeometry x="383.95" y="1030" width="80" height="80" as="geometry" />
        </mxCell>
        <mxCell id="BPRIxgXjPqgxqExQSOau-56" value="1" style="ellipse;whiteSpace=wrap;html=1;aspect=fixed;" vertex="1" parent="1">
          <mxGeometry x="414" y="1030" width="20" height="20" as="geometry" />
        </mxCell>
        <mxCell id="BPRIxgXjPqgxqExQSOau-127" style="edgeStyle=orthogonalEdgeStyle;rounded=0;orthogonalLoop=1;jettySize=auto;html=1;exitX=0.5;exitY=1;exitDx=0;exitDy=0;entryX=0.5;entryY=0;entryDx=0;entryDy=0;" edge="1" parent="1" source="BPRIxgXjPqgxqExQSOau-57" target="BPRIxgXjPqgxqExQSOau-125">
          <mxGeometry relative="1" as="geometry" />
        </mxCell>
        <mxCell id="BPRIxgXjPqgxqExQSOau-132" style="edgeStyle=orthogonalEdgeStyle;rounded=0;orthogonalLoop=1;jettySize=auto;html=1;exitX=0;exitY=0.5;exitDx=0;exitDy=0;entryX=0.5;entryY=1;entryDx=0;entryDy=0;" edge="1" parent="1" source="BPRIxgXjPqgxqExQSOau-57" target="BPRIxgXjPqgxqExQSOau-50">
          <mxGeometry relative="1" as="geometry" />
        </mxCell>
        <mxCell id="BPRIxgXjPqgxqExQSOau-133" style="edgeStyle=orthogonalEdgeStyle;rounded=0;orthogonalLoop=1;jettySize=auto;html=1;exitX=1;exitY=0.5;exitDx=0;exitDy=0;entryX=0.5;entryY=1;entryDx=0;entryDy=0;" edge="1" parent="1" source="BPRIxgXjPqgxqExQSOau-57" target="BPRIxgXjPqgxqExQSOau-67">
          <mxGeometry relative="1" as="geometry" />
        </mxCell>
        <mxCell id="BPRIxgXjPqgxqExQSOau-57" value="Visualizar mensajes" style="ellipse;whiteSpace=wrap;html=1;aspect=fixed;" vertex="1" parent="1">
          <mxGeometry x="413" y="1640" width="80" height="80" as="geometry" />
        </mxCell>
        <mxCell id="BPRIxgXjPqgxqExQSOau-58" value="1" style="ellipse;whiteSpace=wrap;html=1;aspect=fixed;" vertex="1" parent="1">
          <mxGeometry x="443" y="1640" width="20" height="20" as="geometry" />
        </mxCell>
        <mxCell id="BPRIxgXjPqgxqExQSOau-59" style="edgeStyle=orthogonalEdgeStyle;rounded=0;orthogonalLoop=1;jettySize=auto;html=1;exitX=0;exitY=1;exitDx=0;exitDy=0;entryX=0;entryY=0.5;entryDx=0;entryDy=0;" edge="1" parent="1" source="BPRIxgXjPqgxqExQSOau-61" target="BPRIxgXjPqgxqExQSOau-50">
          <mxGeometry relative="1" as="geometry" />
        </mxCell>
        <mxCell id="BPRIxgXjPqgxqExQSOau-60" style="edgeStyle=orthogonalEdgeStyle;rounded=0;orthogonalLoop=1;jettySize=auto;html=1;exitX=1;exitY=1;exitDx=0;exitDy=0;entryX=1;entryY=0.5;entryDx=0;entryDy=0;" edge="1" parent="1" source="BPRIxgXjPqgxqExQSOau-61" target="BPRIxgXjPqgxqExQSOau-67">
          <mxGeometry relative="1" as="geometry" />
        </mxCell>
        <mxCell id="BPRIxgXjPqgxqExQSOau-61" value="Enviar&lt;div&gt;Mensaje&lt;/div&gt;" style="ellipse;whiteSpace=wrap;html=1;aspect=fixed;" vertex="1" parent="1">
          <mxGeometry x="413" y="1910" width="80" height="80" as="geometry" />
        </mxCell>
        <mxCell id="BPRIxgXjPqgxqExQSOau-63" style="edgeStyle=orthogonalEdgeStyle;rounded=0;orthogonalLoop=1;jettySize=auto;html=1;exitX=0.5;exitY=0;exitDx=0;exitDy=0;entryX=1;entryY=0.5;entryDx=0;entryDy=0;" edge="1" parent="1" source="BPRIxgXjPqgxqExQSOau-67" target="BPRIxgXjPqgxqExQSOau-52">
          <mxGeometry relative="1" as="geometry" />
        </mxCell>
        <mxCell id="BPRIxgXjPqgxqExQSOau-64" style="edgeStyle=orthogonalEdgeStyle;rounded=0;orthogonalLoop=1;jettySize=auto;html=1;exitX=0;exitY=0.5;exitDx=0;exitDy=0;entryX=1;entryY=0.5;entryDx=0;entryDy=0;" edge="1" parent="1" source="BPRIxgXjPqgxqExQSOau-67" target="BPRIxgXjPqgxqExQSOau-55">
          <mxGeometry relative="1" as="geometry" />
        </mxCell>
        <mxCell id="BPRIxgXjPqgxqExQSOau-66" style="edgeStyle=orthogonalEdgeStyle;rounded=0;orthogonalLoop=1;jettySize=auto;html=1;exitX=0.75;exitY=1;exitDx=0;exitDy=0;entryX=1;entryY=0.5;entryDx=0;entryDy=0;" edge="1" parent="1" source="BPRIxgXjPqgxqExQSOau-67" target="BPRIxgXjPqgxqExQSOau-61">
          <mxGeometry relative="1" as="geometry" />
        </mxCell>
        <mxCell id="BPRIxgXjPqgxqExQSOau-67" value="Supervisor" style="rounded=0;whiteSpace=wrap;html=1;" vertex="1" parent="1">
          <mxGeometry x="609.95" y="1030" width="120" height="60" as="geometry" />
        </mxCell>
        <mxCell id="BPRIxgXjPqgxqExQSOau-73" style="edgeStyle=orthogonalEdgeStyle;rounded=0;orthogonalLoop=1;jettySize=auto;html=1;exitX=0;exitY=0.5;exitDx=0;exitDy=0;entryX=0.75;entryY=1;entryDx=0;entryDy=0;" edge="1" parent="1" source="BPRIxgXjPqgxqExQSOau-70" target="BPRIxgXjPqgxqExQSOau-50">
          <mxGeometry relative="1" as="geometry" />
        </mxCell>
        <mxCell id="BPRIxgXjPqgxqExQSOau-99" style="edgeStyle=orthogonalEdgeStyle;rounded=0;orthogonalLoop=1;jettySize=auto;html=1;exitX=0.5;exitY=1;exitDx=0;exitDy=0;entryX=0;entryY=0;entryDx=0;entryDy=0;" edge="1" parent="1" source="BPRIxgXjPqgxqExQSOau-70" target="BPRIxgXjPqgxqExQSOau-82">
          <mxGeometry relative="1" as="geometry" />
        </mxCell>
        <mxCell id="BPRIxgXjPqgxqExQSOau-70" value="Subir&amp;nbsp;&lt;div&gt;Proyectos&lt;/div&gt;" style="ellipse;whiteSpace=wrap;html=1;aspect=fixed;" vertex="1" parent="1">
          <mxGeometry x="280" y="1150" width="80" height="80" as="geometry" />
        </mxCell>
        <mxCell id="BPRIxgXjPqgxqExQSOau-71" value="2" style="ellipse;whiteSpace=wrap;html=1;aspect=fixed;" vertex="1" parent="1">
          <mxGeometry x="310" y="1150" width="20" height="20" as="geometry" />
        </mxCell>
        <mxCell id="BPRIxgXjPqgxqExQSOau-79" style="edgeStyle=orthogonalEdgeStyle;rounded=0;orthogonalLoop=1;jettySize=auto;html=1;exitX=1;exitY=0.5;exitDx=0;exitDy=0;entryX=0.25;entryY=1;entryDx=0;entryDy=0;" edge="1" parent="1" source="BPRIxgXjPqgxqExQSOau-76" target="BPRIxgXjPqgxqExQSOau-67">
          <mxGeometry relative="1" as="geometry" />
        </mxCell>
        <mxCell id="BPRIxgXjPqgxqExQSOau-76" value="Subir Encuestas" style="ellipse;whiteSpace=wrap;html=1;aspect=fixed;" vertex="1" parent="1">
          <mxGeometry x="529.95" y="1140" width="80" height="80" as="geometry" />
        </mxCell>
        <mxCell id="BPRIxgXjPqgxqExQSOau-77" value="2" style="ellipse;whiteSpace=wrap;html=1;aspect=fixed;" vertex="1" parent="1">
          <mxGeometry x="559.95" y="1140" width="20" height="20" as="geometry" />
        </mxCell>
        <mxCell id="BPRIxgXjPqgxqExQSOau-109" style="edgeStyle=orthogonalEdgeStyle;rounded=0;orthogonalLoop=1;jettySize=auto;html=1;exitX=0.5;exitY=1;exitDx=0;exitDy=0;" edge="1" parent="1" source="BPRIxgXjPqgxqExQSOau-82">
          <mxGeometry relative="1" as="geometry">
            <mxPoint x="443.75" y="1400" as="targetPoint" />
          </mxGeometry>
        </mxCell>
        <mxCell id="BPRIxgXjPqgxqExQSOau-82" value="Realizar&lt;div&gt;Comentarios&lt;/div&gt;" style="ellipse;whiteSpace=wrap;html=1;aspect=fixed;" vertex="1" parent="1">
          <mxGeometry x="404" y="1260" width="80" height="80" as="geometry" />
        </mxCell>
        <mxCell id="BPRIxgXjPqgxqExQSOau-83" value="2" style="ellipse;whiteSpace=wrap;html=1;aspect=fixed;" vertex="1" parent="1">
          <mxGeometry x="433.95" y="1260" width="20" height="20" as="geometry" />
        </mxCell>
        <mxCell id="BPRIxgXjPqgxqExQSOau-84" style="edgeStyle=orthogonalEdgeStyle;rounded=0;orthogonalLoop=1;jettySize=auto;html=1;exitX=0;exitY=0.5;exitDx=0;exitDy=0;entryX=0.621;entryY=1.018;entryDx=0;entryDy=0;entryPerimeter=0;" edge="1" parent="1" source="BPRIxgXjPqgxqExQSOau-82" target="BPRIxgXjPqgxqExQSOau-50">
          <mxGeometry relative="1" as="geometry" />
        </mxCell>
        <mxCell id="BPRIxgXjPqgxqExQSOau-85" style="edgeStyle=orthogonalEdgeStyle;rounded=0;orthogonalLoop=1;jettySize=auto;html=1;exitX=1;exitY=0.5;exitDx=0;exitDy=0;entryX=0.371;entryY=1.027;entryDx=0;entryDy=0;entryPerimeter=0;" edge="1" parent="1" source="BPRIxgXjPqgxqExQSOau-82" target="BPRIxgXjPqgxqExQSOau-67">
          <mxGeometry relative="1" as="geometry" />
        </mxCell>
        <mxCell id="BPRIxgXjPqgxqExQSOau-92" value="Realizar&lt;div&gt;Valoracion&lt;/div&gt;" style="ellipse;whiteSpace=wrap;html=1;aspect=fixed;" vertex="1" parent="1">
          <mxGeometry x="413" y="1510" width="80" height="80" as="geometry" />
        </mxCell>
        <mxCell id="BPRIxgXjPqgxqExQSOau-93" value="2" style="ellipse;whiteSpace=wrap;html=1;aspect=fixed;" vertex="1" parent="1">
          <mxGeometry x="443" y="1510" width="20" height="20" as="geometry" />
        </mxCell>
        <mxCell id="BPRIxgXjPqgxqExQSOau-95" style="edgeStyle=orthogonalEdgeStyle;rounded=0;orthogonalLoop=1;jettySize=auto;html=1;exitX=1;exitY=0.5;exitDx=0;exitDy=0;entryX=0.617;entryY=1.062;entryDx=0;entryDy=0;entryPerimeter=0;" edge="1" parent="1" source="BPRIxgXjPqgxqExQSOau-92" target="BPRIxgXjPqgxqExQSOau-67">
          <mxGeometry relative="1" as="geometry" />
        </mxCell>
        <mxCell id="BPRIxgXjPqgxqExQSOau-96" style="edgeStyle=orthogonalEdgeStyle;rounded=0;orthogonalLoop=1;jettySize=auto;html=1;exitX=0;exitY=0.5;exitDx=0;exitDy=0;entryX=0.375;entryY=1.054;entryDx=0;entryDy=0;entryPerimeter=0;" edge="1" parent="1" source="BPRIxgXjPqgxqExQSOau-92" target="BPRIxgXjPqgxqExQSOau-50">
          <mxGeometry relative="1" as="geometry" />
        </mxCell>
        <mxCell id="BPRIxgXjPqgxqExQSOau-97" style="edgeStyle=orthogonalEdgeStyle;rounded=0;orthogonalLoop=1;jettySize=auto;html=1;exitX=1;exitY=0.5;exitDx=0;exitDy=0;entryX=0.906;entryY=1.045;entryDx=0;entryDy=0;entryPerimeter=0;" edge="1" parent="1" source="BPRIxgXjPqgxqExQSOau-70" target="BPRIxgXjPqgxqExQSOau-67">
          <mxGeometry relative="1" as="geometry">
            <Array as="points">
              <mxPoint x="360" y="1230" />
              <mxPoint x="719" y="1230" />
            </Array>
          </mxGeometry>
        </mxCell>
        <mxCell id="BPRIxgXjPqgxqExQSOau-110" style="edgeStyle=orthogonalEdgeStyle;rounded=0;orthogonalLoop=1;jettySize=auto;html=1;exitX=1;exitY=0.5;exitDx=0;exitDy=0;" edge="1" parent="1" source="BPRIxgXjPqgxqExQSOau-103">
          <mxGeometry relative="1" as="geometry">
            <mxPoint x="730" y="1080" as="targetPoint" />
          </mxGeometry>
        </mxCell>
        <mxCell id="BPRIxgXjPqgxqExQSOau-111" style="edgeStyle=orthogonalEdgeStyle;rounded=0;orthogonalLoop=1;jettySize=auto;html=1;exitX=0;exitY=0.5;exitDx=0;exitDy=0;entryX=0;entryY=1;entryDx=0;entryDy=0;" edge="1" parent="1" source="BPRIxgXjPqgxqExQSOau-103" target="BPRIxgXjPqgxqExQSOau-50">
          <mxGeometry relative="1" as="geometry" />
        </mxCell>
        <mxCell id="BPRIxgXjPqgxqExQSOau-103" value="Responder&lt;div&gt;Comentarios&lt;/div&gt;" style="ellipse;whiteSpace=wrap;html=1;aspect=fixed;" vertex="1" parent="1">
          <mxGeometry x="413" y="1400" width="80" height="80" as="geometry" />
        </mxCell>
        <mxCell id="BPRIxgXjPqgxqExQSOau-104" value="2" style="ellipse;whiteSpace=wrap;html=1;aspect=fixed;" vertex="1" parent="1">
          <mxGeometry x="443" y="1400" width="20" height="20" as="geometry" />
        </mxCell>
        <mxCell id="BPRIxgXjPqgxqExQSOau-108" style="edgeStyle=orthogonalEdgeStyle;rounded=0;orthogonalLoop=1;jettySize=auto;html=1;exitX=0;exitY=0;exitDx=0;exitDy=0;entryX=0;entryY=0.5;entryDx=0;entryDy=0;" edge="1" parent="1" source="BPRIxgXjPqgxqExQSOau-104" target="BPRIxgXjPqgxqExQSOau-104">
          <mxGeometry relative="1" as="geometry" />
        </mxCell>
        <mxCell id="BPRIxgXjPqgxqExQSOau-117" style="edgeStyle=orthogonalEdgeStyle;rounded=0;orthogonalLoop=1;jettySize=auto;html=1;exitX=0.5;exitY=1;exitDx=0;exitDy=0;entryX=0.5;entryY=0;entryDx=0;entryDy=0;" edge="1" parent="1" source="BPRIxgXjPqgxqExQSOau-112" target="BPRIxgXjPqgxqExQSOau-31">
          <mxGeometry relative="1" as="geometry" />
        </mxCell>
        <mxCell id="BPRIxgXjPqgxqExQSOau-112" value="Acceder al chat" style="ellipse;whiteSpace=wrap;html=1;aspect=fixed;" vertex="1" parent="1">
          <mxGeometry x="374" y="700" width="80" height="80" as="geometry" />
        </mxCell>
        <mxCell id="BPRIxgXjPqgxqExQSOau-113" value="1" style="ellipse;whiteSpace=wrap;html=1;aspect=fixed;" vertex="1" parent="1">
          <mxGeometry x="403" y="700" width="20" height="20" as="geometry" />
        </mxCell>
        <mxCell id="BPRIxgXjPqgxqExQSOau-118" style="edgeStyle=orthogonalEdgeStyle;rounded=0;orthogonalLoop=1;jettySize=auto;html=1;exitX=0;exitY=0.5;exitDx=0;exitDy=0;entryX=0.375;entryY=1.075;entryDx=0;entryDy=0;entryPerimeter=0;" edge="1" parent="1" source="BPRIxgXjPqgxqExQSOau-112" target="BPRIxgXjPqgxqExQSOau-5">
          <mxGeometry relative="1" as="geometry" />
        </mxCell>
        <mxCell id="BPRIxgXjPqgxqExQSOau-119" style="edgeStyle=orthogonalEdgeStyle;rounded=0;orthogonalLoop=1;jettySize=auto;html=1;exitX=1;exitY=0.5;exitDx=0;exitDy=0;entryX=0.615;entryY=1.075;entryDx=0;entryDy=0;entryPerimeter=0;" edge="1" parent="1" source="BPRIxgXjPqgxqExQSOau-112" target="BPRIxgXjPqgxqExQSOau-37">
          <mxGeometry relative="1" as="geometry" />
        </mxCell>
        <mxCell id="BPRIxgXjPqgxqExQSOau-121" value="1" style="ellipse;whiteSpace=wrap;html=1;aspect=fixed;" vertex="1" parent="1">
          <mxGeometry x="443" y="1910" width="20" height="20" as="geometry" />
        </mxCell>
        <mxCell id="BPRIxgXjPqgxqExQSOau-128" style="edgeStyle=orthogonalEdgeStyle;rounded=0;orthogonalLoop=1;jettySize=auto;html=1;exitX=0.5;exitY=1;exitDx=0;exitDy=0;entryX=0.5;entryY=0;entryDx=0;entryDy=0;" edge="1" parent="1" source="BPRIxgXjPqgxqExQSOau-125" target="BPRIxgXjPqgxqExQSOau-121">
          <mxGeometry relative="1" as="geometry" />
        </mxCell>
        <mxCell id="BPRIxgXjPqgxqExQSOau-129" style="edgeStyle=orthogonalEdgeStyle;rounded=0;orthogonalLoop=1;jettySize=auto;html=1;exitX=1;exitY=0.5;exitDx=0;exitDy=0;" edge="1" parent="1" source="BPRIxgXjPqgxqExQSOau-125">
          <mxGeometry relative="1" as="geometry">
            <mxPoint x="730" y="1030" as="targetPoint" />
            <Array as="points">
              <mxPoint x="770" y="1794" />
              <mxPoint x="770" y="1030" />
            </Array>
          </mxGeometry>
        </mxCell>
        <mxCell id="BPRIxgXjPqgxqExQSOau-130" style="edgeStyle=orthogonalEdgeStyle;rounded=0;orthogonalLoop=1;jettySize=auto;html=1;exitX=0;exitY=0.5;exitDx=0;exitDy=0;" edge="1" parent="1" source="BPRIxgXjPqgxqExQSOau-125">
          <mxGeometry relative="1" as="geometry">
            <mxPoint x="140" y="1020" as="targetPoint" />
            <Array as="points">
              <mxPoint x="90" y="1794" />
              <mxPoint x="90" y="1000" />
              <mxPoint x="140" y="1000" />
            </Array>
          </mxGeometry>
        </mxCell>
        <mxCell id="BPRIxgXjPqgxqExQSOau-125" value="Accdeder al chat" style="ellipse;whiteSpace=wrap;html=1;aspect=fixed;" vertex="1" parent="1">
          <mxGeometry x="413" y="1754" width="80" height="80" as="geometry" />
        </mxCell>
        <mxCell id="BPRIxgXjPqgxqExQSOau-126" value="1" style="ellipse;whiteSpace=wrap;html=1;aspect=fixed;" vertex="1" parent="1">
          <mxGeometry x="443" y="1764" width="20" height="20" as="geometry" />
        </mxCell>
        <mxCell id="BPRIxgXjPqgxqExQSOau-134" value="" style="endArrow=none;html=1;rounded=0;" edge="1" parent="1">
          <mxGeometry width="50" height="50" relative="1" as="geometry">
            <mxPoint x="130" y="2160" as="sourcePoint" />
            <mxPoint x="220" y="2160" as="targetPoint" />
          </mxGeometry>
        </mxCell>
      </root>
    </mxGraphModel>
  </diagram>
</mxfile>
